<?xml version="1.0" standalone="no"?>
<!DOCTYPE svg PUBLIC "-//W3C//DTD SVG 20010904//EN"
 "http://www.w3.org/TR/2001/REC-SVG-20010904/DTD/svg10.dtd">
<svg version="1.0" xmlns="http://www.w3.org/2000/svg"
 width="150" height="150" viewBox="0 0 1280.000000 674.000000"
 preserveAspectRatio="xMidYMid meet">
<metadata>
Created by potrace 1.15, written by Peter Selinger 2001-2017
</metadata>
<g transform="translate(0.000000,674.000000) scale(0.100000,-0.100000)"
fill="#ffffff" stroke="none">
<path d="M6485 6720 c-472 -49 -956 -225 -1358 -493 -299 -200 -534 -419 -736
-687 -124 -164 -185 -265 -173 -286 8 -15 10 -15 16 1 3 9 3 22 -1 27 -4 7 -1
8 6 4 8 -6 11 -2 9 10 -2 12 2 18 10 16 7 -1 12 3 11 10 -1 7 -1 20 0 28 1 13
2 13 12 0 9 -13 10 -13 8 0 -1 8 -1 22 0 30 1 13 2 13 12 0 9 -13 10 -13 8 0
-1 8 -1 22 0 30 1 13 2 13 12 0 9 -13 10 -13 8 0 -1 8 -1 22 0 30 1 13 2 13
12 0 8 -12 9 -11 7 5 -2 12 2 19 10 17 7 -1 12 5 10 15 -2 10 3 18 12 18 8 0
15 9 15 20 0 11 7 20 15 20 8 0 14 8 14 18 -1 9 2 14 7 11 5 -3 8 0 7 7 -2 7
4 13 12 14 8 0 14 8 14 18 -1 9 3 14 9 10 5 -3 7 -1 4 4 -7 10 20 40 32 36 3
-1 5 5 5 12 -1 8 3 12 9 8 6 -4 7 -1 2 7 -6 9 -4 11 5 5 8 -5 11 -4 7 2 -4 6
0 16 8 23 8 7 15 9 15 5 0 -4 7 -2 15 5 9 7 14 19 11 27 -3 8 -1 11 5 8 11 -7
56 44 51 58 -1 5 1 6 6 3 12 -7 84 68 75 79 -5 4 -2 5 5 1 15 -9 65 31 57 45
-6 8 13 23 30 24 6 1 9 6 8 12 -1 6 5 10 15 9 9 0 17 4 17 9 1 19 16 35 27 29
6 -4 8 -2 5 3 -4 6 1 10 10 9 10 0 18 6 18 14 1 8 7 14 14 12 7 -1 10 2 6 8
-4 6 1 7 11 3 11 -4 15 -2 11 4 -8 13 17 36 28 25 5 -4 5 -1 1 5 -5 9 -2 11 9
7 10 -4 15 -2 13 7 -2 9 4 13 17 11 11 -2 17 -1 13 4 -12 11 11 34 28 27 9 -3
14 0 12 8 -2 9 4 13 15 11 10 -2 16 3 15 10 -2 8 4 12 15 10 10 -2 16 3 15 10
-2 8 4 12 16 10 12 -2 16 1 10 9 -5 8 -3 10 6 4 9 -6 11 -4 5 5 -6 10 -4 12 9
7 10 -4 15 -3 11 3 -4 6 2 7 12 4 15 -5 16 -4 3 5 -13 9 -13 11 0 12 8 1 21 1
28 0 7 -1 11 4 10 11 -2 8 4 12 16 10 10 -2 15 1 11 7 -4 7 0 8 10 5 10 -4 15
-2 13 7 -2 8 4 13 14 13 10 -1 15 2 12 7 -3 5 3 6 12 2 12 -4 15 -3 10 5 -5 8
-1 10 10 5 12 -4 15 -3 10 5 -5 8 -1 10 10 5 12 -4 15 -3 10 5 -5 8 -2 10 9 6
10 -4 15 -2 13 7 -2 10 5 13 22 11 20 -2 22 0 10 9 -12 8 -9 9 10 4 20 -5 22
-4 10 5 -12 9 -10 10 10 5 20 -5 22 -4 10 5 -12 9 -10 10 10 5 20 -5 22 -4 10
5 -12 9 -10 10 9 5 16 -5 21 -4 17 4 -5 7 -1 8 10 4 12 -4 15 -3 10 5 -5 8 -1
10 10 5 12 -4 15 -3 10 5 -5 8 -1 10 10 5 12 -5 15 -3 9 6 -6 10 -2 11 16 6
19 -5 21 -4 9 5 -12 9 -10 10 9 5 16 -5 21 -4 17 4 -7 11 5 15 38 11 12 -1 16
2 10 11 -5 9 -2 10 10 6 9 -4 15 -3 12 2 -4 5 4 7 16 3 16 -4 19 -2 13 8 -6
10 -4 12 9 7 11 -4 15 -3 10 4 -4 8 1 9 16 4 16 -5 20 -4 15 5 -5 9 -1 10 15
5 14 -5 20 -3 16 3 -4 6 2 8 16 4 15 -4 19 -2 13 7 -6 10 -1 11 16 6 19 -5 21
-4 9 5 -12 8 -8 9 14 4 22 -5 27 -4 21 6 -5 9 -2 10 15 5 16 -5 20 -4 15 4 -5
8 1 10 21 5 20 -5 25 -4 19 6 -5 9 -2 10 15 5 16 -5 20 -4 15 4 -5 8 1 10 21
5 19 -5 25 -4 20 5 -6 9 0 10 21 6 22 -5 25 -4 13 4 -11 8 -7 9 19 4 27 -5 32
-3 26 7 -6 10 -2 11 19 6 18 -4 25 -3 21 3 -4 7 5 9 25 5 20 -5 30 -3 30 6 0
8 9 10 26 6 17 -5 24 -3 19 4 -5 8 4 9 29 5 25 -5 36 -4 36 5 0 9 11 10 38 6
27 -5 33 -4 22 4 -11 7 2 8 44 4 46 -6 57 -4 51 5 -6 10 8 12 61 7 38 -3 61
-3 52 1 -9 5 86 8 211 8 126 0 224 -4 218 -8 -7 -5 16 -5 51 -2 46 5 62 4 62
-5 0 -9 14 -11 53 -6 38 5 48 4 37 -4 -11 -8 -4 -10 28 -5 29 5 42 3 42 -5 0
-9 11 -10 36 -5 26 4 34 3 29 -5 -6 -9 1 -10 24 -5 21 4 31 3 31 -5 0 -9 10
-10 30 -6 20 4 29 2 25 -5 -4 -6 3 -7 19 -3 17 4 26 2 26 -6 0 -8 9 -10 26 -6
17 5 23 3 19 -4 -5 -7 2 -9 21 -4 21 5 25 4 19 -6 -6 -10 -2 -11 19 -6 20 5
26 3 21 -5 -5 -8 -1 -9 15 -4 17 5 20 4 15 -5 -6 -10 -1 -11 19 -6 20 5 26 3
21 -5 -5 -8 -1 -9 15 -4 17 5 21 4 15 -6 -6 -9 -2 -11 13 -7 14 4 20 2 16 -4
-4 -6 2 -8 16 -3 17 5 21 4 15 -6 -6 -9 -2 -11 13 -7 14 4 20 2 16 -4 -4 -6 2
-8 16 -3 16 5 20 4 15 -5 -5 -9 -1 -10 15 -5 15 5 20 4 16 -4 -5 -7 -1 -8 10
-4 13 5 15 3 9 -7 -6 -10 -3 -12 13 -8 14 4 20 2 15 -5 -4 -6 0 -8 10 -4 10 4
17 2 17 -4 0 -6 7 -8 16 -5 10 4 13 2 8 -6 -5 -8 -2 -9 10 -5 11 4 15 3 10 -4
-4 -8 1 -9 17 -4 19 5 21 4 9 -5 -12 -9 -10 -10 9 -5 18 5 22 4 16 -6 -6 -9
-3 -11 9 -6 11 5 15 3 10 -5 -5 -8 -2 -9 10 -5 10 4 15 3 11 -3 -4 -6 4 -9 17
-7 15 1 22 -3 20 -11 -2 -10 4 -11 19 -7 14 5 19 4 15 -4 -5 -7 -1 -8 10 -4
12 4 15 3 10 -5 -5 -8 -2 -10 9 -6 10 4 15 2 13 -6 -2 -7 4 -15 12 -17 13 -4
13 -3 0 7 -13 10 -13 11 0 7 8 -2 14 -10 12 -17 -2 -8 3 -10 13 -6 11 4 14 2
9 -6 -5 -8 -2 -9 10 -5 11 5 15 3 10 -5 -5 -8 -2 -9 10 -5 11 4 15 3 11 -4 -4
-6 1 -9 11 -7 12 2 18 -2 16 -11 -2 -9 3 -11 13 -7 11 4 14 2 9 -6 -5 -8 -2
-9 10 -5 11 4 15 3 11 -4 -4 -6 1 -9 11 -7 12 2 18 -2 16 -10 -1 -7 5 -12 15
-10 11 2 17 -2 15 -11 -2 -9 3 -11 13 -7 9 3 13 2 10 -4 -3 -6 1 -7 10 -4 10
4 15 2 13 -7 -2 -9 4 -13 15 -11 10 2 16 -3 15 -10 -2 -8 4 -12 16 -10 10 2
15 -1 12 -7 -4 -5 -1 -13 5 -17 8 -5 9 -3 4 6 -5 9 -4 11 4 6 6 -4 9 -12 5
-17 -3 -6 2 -9 12 -7 12 2 18 -2 16 -11 -2 -8 3 -11 12 -8 17 7 39 -16 28 -28
-4 -5 1 -5 10 -2 18 6 42 -15 30 -28 -4 -5 1 -5 11 -2 11 4 16 3 12 -3 -4 -6
-1 -9 6 -8 7 2 13 -4 14 -12 0 -8 8 -14 18 -14 9 1 14 -3 10 -9 -4 -6 -1 -7 7
-2 9 5 11 4 6 -4 -5 -7 -2 -10 6 -9 7 2 12 -3 10 -11 -2 -8 3 -11 12 -8 9 4
15 2 13 -2 -1 -5 1 -8 4 -7 10 2 39 -26 34 -34 -8 -12 33 -43 46 -34 7 4 10 3
6 -3 -8 -13 27 -46 38 -36 4 5 5 2 0 -6 -6 -10 -4 -12 5 -6 9 6 11 4 5 -5 -5
-8 -4 -11 2 -7 13 8 56 -37 46 -48 -5 -4 -2 -5 6 0 10 6 12 4 6 -5 -6 -9 -4
-11 5 -5 9 6 11 4 5 -5 -6 -9 -4 -11 5 -5 9 6 11 4 5 -5 -6 -9 -4 -11 5 -5 9
6 11 4 5 -5 -6 -9 -4 -11 5 -5 9 6 11 4 5 -5 -6 -9 -4 -11 5 -5 9 6 11 4 5 -5
-6 -9 -4 -11 5 -5 9 6 11 4 5 -5 -5 -9 -4 -11 3 -6 8 5 10 1 5 -10 -5 -13 -2
-16 9 -12 9 4 15 1 14 -5 0 -7 2 -12 5 -12 14 0 38 -28 32 -38 -4 -6 -1 -7 7
-2 9 6 11 4 5 -5 -5 -8 -4 -11 2 -7 6 4 10 -1 9 -10 0 -10 4 -18 11 -18 16 0
38 -22 38 -38 0 -7 3 -12 6 -12 15 0 37 -28 32 -41 -3 -9 0 -14 8 -12 8 2 13
-3 11 -10 -1 -8 2 -11 8 -7 6 3 7 0 4 -10 -4 -10 -2 -15 7 -13 9 2 13 -4 11
-17 -2 -16 -1 -17 7 -5 10 13 11 13 12 0 1 -8 1 -19 0 -23 -1 -5 3 -6 9 -2 6
3 7 0 4 -10 -4 -10 -2 -15 7 -13 9 2 13 -4 11 -16 -2 -12 1 -16 9 -10 8 5 10
3 4 -6 -6 -9 -4 -11 5 -5 10 6 12 4 7 -9 -5 -11 -3 -15 5 -10 7 5 8 3 3 -6 -5
-9 -4 -11 3 -6 8 5 10 1 5 -10 -5 -13 -3 -15 7 -9 9 6 11 4 5 -5 -5 -9 -4 -11
3 -6 12 7 16 -5 13 -32 -1 -7 4 -11 11 -10 8 2 12 -4 10 -16 -2 -10 1 -15 7
-11 7 4 8 0 5 -10 -4 -10 -2 -15 7 -13 8 2 13 -4 13 -14 -1 -10 2 -15 7 -12 5
3 6 -3 2 -12 -4 -12 -3 -15 5 -10 12 7 16 -5 13 -33 -2 -7 2 -10 8 -6 7 4 8 0
4 -11 -4 -12 -3 -15 5 -10 8 5 10 2 6 -9 -4 -10 -2 -15 7 -13 9 2 13 -5 12
-20 -2 -13 1 -21 7 -17 10 6 14 -7 11 -34 -2 -7 2 -10 8 -6 11 6 15 -5 12 -40
-2 -17 0 -18 9 -5 9 12 10 10 5 -10 -5 -20 -4 -22 5 -10 9 12 10 10 5 -9 -5
-17 -4 -21 5 -16 9 5 10 1 5 -16 -5 -19 -4 -21 5 -9 9 12 10 10 5 -9 -5 -17
-4 -21 5 -16 9 5 10 1 5 -16 -5 -19 -4 -21 5 -9 9 12 10 10 5 -9 -5 -17 -4
-21 5 -16 9 5 10 1 5 -15 -5 -14 -3 -20 3 -16 6 4 8 -3 5 -16 -4 -19 -3 -20 7
-8 10 12 11 11 7 -8 -3 -12 -1 -19 4 -16 6 3 7 -5 3 -22 -5 -20 -4 -25 6 -19
9 5 10 1 5 -16 -5 -19 -4 -21 5 -9 8 12 9 8 4 -14 -5 -22 -4 -27 6 -21 10 6
11 1 6 -21 -5 -21 -4 -25 4 -14 7 11 8 6 4 -20 -4 -28 -3 -32 6 -20 9 12 10 9
5 -13 -4 -19 -2 -26 4 -22 7 4 8 -5 4 -26 -5 -25 -3 -30 7 -24 10 6 11 2 6
-19 -4 -17 -3 -25 3 -22 6 4 8 -8 5 -31 -5 -30 -3 -35 6 -23 9 12 10 6 5 -25
-4 -29 -3 -36 5 -25 7 11 8 1 3 -34 -5 -39 -3 -47 7 -41 10 6 12 0 7 -28 -6
-39 5 -50 44 -40 16 5 20 3 14 -7 -6 -10 1 -11 31 -6 29 5 35 4 24 -4 -11 -8
-8 -9 14 -4 22 5 27 4 21 -6 -6 -9 1 -11 26 -5 26 5 30 4 19 -5 -12 -8 -8 -9
14 -4 22 5 27 4 21 -6 -6 -10 -2 -11 19 -6 20 5 26 3 21 -5 -5 -8 -1 -9 15 -4
17 5 20 4 15 -5 -6 -10 -1 -11 19 -6 20 5 26 3 21 -5 -5 -8 -1 -9 15 -4 16 5
20 4 15 -5 -5 -9 -1 -10 15 -5 16 5 20 4 15 -5 -5 -9 -1 -10 15 -5 17 5 21 4
15 -6 -6 -9 -2 -11 13 -7 14 4 20 2 16 -4 -4 -6 2 -8 16 -3 16 5 20 4 15 -5
-5 -9 -1 -10 16 -5 19 5 21 4 9 -5 -12 -9 -10 -10 9 -5 17 5 21 4 16 -5 -5 -9
-1 -10 16 -5 19 5 21 4 9 -5 -12 -9 -10 -10 9 -5 17 5 21 4 16 -5 -5 -9 -1
-10 15 -5 15 5 20 4 16 -4 -5 -7 -1 -8 10 -4 13 5 15 3 9 -7 -6 -10 -4 -12 9
-7 11 5 15 3 10 -5 -5 -8 -2 -9 10 -5 11 4 15 3 10 -4 -4 -8 1 -9 17 -4 19 5
21 4 9 -5 -12 -9 -10 -10 10 -5 20 5 22 4 10 -5 -13 -9 -12 -11 5 -9 35 3 46
-1 40 -12 -4 -6 -1 -10 6 -8 26 3 39 -1 36 -12 -1 -6 4 -14 12 -17 9 -3 11 0
6 8 -5 9 -4 11 4 6 6 -4 8 -12 5 -18 -5 -8 -1 -9 10 -5 11 5 15 3 10 -5 -5 -8
-2 -9 10 -5 11 5 15 3 10 -5 -5 -8 -2 -9 10 -5 9 4 15 3 12 -2 -3 -5 2 -8 12
-7 10 0 16 -5 14 -13 -2 -8 3 -11 12 -8 9 4 15 1 13 -5 -1 -6 3 -12 9 -15 6
-2 11 3 11 12 0 24 -222 142 -407 215 -136 55 -328 111 -520 154 -24 5 -26 11
-38 101 -34 251 -136 560 -268 815 -285 547 -752 1000 -1319 1280 -296 146
-568 232 -890 280 -123 19 -201 23 -440 25 -159 2 -326 0 -370 -5z m2416 -807
c13 -16 12 -17 -3 -4 -10 7 -18 15 -18 17 0 8 8 3 21 -13z m-4181 -26 c0 -2
-17 -19 -37 -38 l-38 -34 34 38 c33 34 41 42 41 34z m-80 -80 c0 -2 -12 -14
-27 -28 l-28 -24 24 28 c23 25 31 32 31 24z"/>
<path d="M6535 6689 c-199 -19 -424 -63 -607 -120 -119 -37 -335 -122 -425
-167 -34 -18 -68 -30 -75 -29 -7 2 -9 2 -5 -1 15 -8 -91 -62 -110 -56 -12 4
-14 3 -5 -3 9 -7 1 -15 -27 -31 -22 -12 -80 -49 -130 -82 -94 -62 -107 -68
-95 -48 4 7 3 8 -5 4 -6 -4 -9 -11 -6 -16 3 -4 -11 -20 -29 -34 -37 -28 -52
-33 -40 -14 4 7 3 8 -5 4 -6 -4 -9 -11 -6 -16 3 -4 -15 -24 -39 -44 -45 -37
-63 -45 -50 -24 5 7 3 8 -5 4 -7 -5 -10 -11 -7 -14 7 -7 -44 -62 -56 -62 -5 0
-6 5 -2 12 5 7 3 8 -5 4 -7 -5 -10 -11 -6 -14 8 -8 -226 -242 -236 -236 -4 2
-11 -1 -15 -7 -4 -8 -3 -9 4 -5 7 4 12 3 12 -2 0 -11 -56 -65 -65 -62 -4 1
-10 -2 -13 -6 -4 -4 -1 -4 6 0 22 13 12 -5 -41 -72 -30 -37 -64 -82 -76 -100
-12 -18 -26 -30 -31 -27 -4 3 -7 -3 -6 -13 0 -9 -4 -16 -10 -15 -7 1 -11 -5
-10 -15 0 -9 -5 -16 -12 -14 -8 1 -11 -2 -7 -8 3 -5 -17 -47 -44 -93 -65 -108
-171 -329 -207 -434 -28 -81 -29 -81 -54 -68 -34 17 -134 50 -200 67 -35 8
-111 13 -210 12 -132 -1 -169 -5 -251 -27 -333 -88 -610 -317 -729 -604 -39
-93 -80 -252 -80 -310 0 -49 -1 -49 -91 -33 -208 36 -527 32 -789 -11 -646
-107 -1170 -442 -1446 -926 -274 -481 -170 -1114 250 -1527 394 -387 907 -595
1536 -622 357 -16 794 63 1113 202 43 19 81 34 85 34 4 0 16 -21 26 -48 30
-74 112 -215 173 -294 223 -293 560 -501 945 -584 120 -27 448 -27 568 0 284
61 515 181 753 389 l68 60 59 -27 c141 -63 331 -117 520 -147 109 -18 468 -18
570 -1 309 53 555 144 776 287 l80 52 68 -64 c415 -394 1067 -624 1696 -600
541 22 1005 184 1415 496 100 76 314 291 366 367 50 75 100 123 127 125 9 1
67 0 127 -1 241 -4 470 67 690 212 104 68 287 251 354 353 171 261 230 525
186 833 -37 262 -158 489 -364 684 -221 210 -467 325 -767 359 -106 11 -192 7
-321 -17 -75 -15 -84 -14 -117 1 -20 10 -66 54 -106 101 -39 46 -75 84 -79 84
-4 0 -46 30 -92 67 -46 36 -117 88 -157 114 -41 26 -70 49 -65 51 4 3 3 3 -4
2 -16 -4 -124 56 -119 65 3 4 -5 7 -17 7 -12 -1 -21 4 -20 9 1 6 -8 11 -20 11
-12 1 -64 20 -115 43 -122 54 -322 119 -494 160 l-136 33 -7 62 c-19 173 -78
397 -151 585 -26 64 -47 126 -48 138 0 11 -4 19 -7 17 -10 -6 -20 26 -12 38 3
6 1 8 -4 5 -14 -9 -24 17 -17 41 4 12 3 13 -3 4 -11 -15 -47 53 -37 70 4 7 2
8 -4 4 -15 -9 -33 28 -26 51 4 12 3 14 -3 5 -12 -15 -58 62 -47 80 4 6 3 8 -3
5 -13 -8 -106 130 -97 145 4 6 3 8 -3 5 -6 -4 -38 30 -72 74 -63 82 -74 101
-43 78 15 -13 16 -12 3 3 -7 10 -17 16 -21 13 -9 -6 -52 39 -48 51 2 5 0 9 -4
9 -15 0 -138 130 -134 141 6 15 -28 47 -38 37 -8 -8 -117 97 -110 108 2 4 -1
11 -7 15 -8 4 -9 3 -5 -4 13 -21 -10 -13 -32 11 -12 13 -19 27 -15 32 5 4 2 5
-5 1 -14 -8 -105 61 -97 74 3 5 0 12 -6 16 -8 4 -9 3 -5 -4 4 -7 3 -12 -2 -12
-11 0 -30 21 -30 33 0 5 -4 12 -8 15 -4 4 -4 1 0 -5 12 -22 -5 -14 -68 30 -84
60 -248 158 -340 204 -52 25 -72 40 -63 46 8 6 6 7 -6 3 -9 -3 -57 12 -107 34
-157 69 -375 138 -552 174 -277 57 -668 80 -933 55z m2416 -846 c13 -16 12
-17 -3 -4 -10 7 -18 15 -18 17 0 8 8 3 21 -13z"/>
<path d="M4134 5129 c-37 -74 -83 -177 -103 -230 l-37 -97 -34 15 c-165 70
-441 85 -640 34 -141 -36 -348 -129 -335 -151 3 -5 0 -12 -6 -16 -8 -4 -9 -3
-5 4 10 16 0 15 -29 -4 -14 -9 -23 -20 -20 -24 3 -5 0 -12 -6 -16 -8 -4 -9 -3
-5 4 15 25 -12 9 -67 -39 -31 -28 -54 -55 -51 -60 3 -5 0 -8 -8 -7 -7 2 -12
-3 -10 -10 1 -8 -2 -11 -7 -8 -8 5 -91 -83 -91 -97 0 -18 37 12 125 99 55 55
123 115 152 134 29 18 50 36 48 40 -3 4 3 7 13 6 9 0 16 5 14 12 -1 7 3 12 10
11 26 -3 39 1 33 12 -4 6 -1 10 6 8 27 -3 40 1 34 12 -4 6 -1 10 6 8 32 -4 50
1 43 13 -5 8 -2 9 10 5 11 -4 15 -3 10 4 -4 8 1 9 16 4 15 -5 20 -4 16 4 -4 7
0 10 11 9 35 -3 54 2 48 13 -4 6 2 9 17 8 45 -4 69 1 62 12 -4 8 4 9 27 4 26
-5 30 -4 19 5 -11 8 -4 9 29 4 30 -5 42 -4 38 3 -5 7 34 11 118 11 81 -1 122
-4 118 -11 -4 -7 9 -8 36 -3 28 4 40 3 36 -4 -4 -6 6 -7 26 -3 25 5 30 3 24
-7 -6 -10 -2 -11 19 -6 20 5 26 3 21 -5 -5 -8 -1 -9 15 -4 16 5 20 4 15 -5 -5
-9 -1 -10 15 -5 14 5 20 3 16 -3 -3 -6 8 -15 24 -21 24 -8 29 -7 25 2 -4 7 1
3 10 -8 14 -17 17 -18 25 -5 6 8 8 21 5 28 -3 7 0 10 5 7 10 -6 15 13 12 48
-1 10 2 16 7 13 12 -8 22 20 14 41 -4 10 -2 14 4 10 14 -9 24 18 16 41 -3 9
-2 13 2 9 13 -11 96 159 88 180 -4 11 -3 14 5 9 15 -9 53 66 42 84 -6 9 -29
-28 -76 -121z m49 56 c-3 -9 -8 -14 -10 -11 -3 3 -2 9 2 15 9 16 15 13 8 -4z
m-38 -74 c-21 -43 -29 -39 -8 4 9 19 18 33 21 31 2 -2 -4 -18 -13 -35z m-34
-68 c-12 -20 -14 -14 -5 12 4 9 9 14 11 11 3 -2 0 -13 -6 -23z m-1201 -406 c0
-2 -15 -13 -32 -26 l-33 -22 28 25 c26 24 37 31 37 23z m-140 -130 c0 -2 -17
-19 -37 -38 l-38 -34 34 38 c33 34 41 42 41 34z"/>
<path d="M2665 4412 c-11 -11 -4 -20 12 -18 22 3 29 23 8 23 -8 0 -17 -3 -20
-5z"/>
<path d="M2636 4366 c-57 -87 -115 -245 -141 -381 -9 -43 -17 -81 -20 -83 -2
-2 -32 1 -67 7 -101 18 -408 25 -560 12 -626 -53 -1176 -315 -1512 -721 -157
-189 -252 -372 -304 -583 -25 -104 -24 -431 1 -537 31 -129 56 -202 108 -309
95 -201 194 -325 387 -491 109 -93 153 -123 121 -82 -13 15 -12 16 3 3 10 -7
16 -17 13 -21 -8 -13 178 -128 318 -195 214 -104 449 -173 727 -217 116 -18
594 -18 715 0 231 35 445 90 632 164 86 34 108 39 111 28 13 -38 98 -190 145
-258 63 -92 198 -236 287 -307 211 -168 449 -279 720 -336 149 -32 429 -32
577 -1 269 58 506 175 726 360 l96 81 95 -39 c241 -98 470 -141 762 -141 168
0 253 7 384 31 241 45 493 143 682 266 l71 45 26 -26 c15 -14 31 -22 35 -18 4
5 6 2 4 -4 -2 -7 29 -40 67 -73 69 -59 101 -77 74 -42 -13 15 -12 16 3 3 10
-7 15 -17 12 -22 -7 -12 189 -139 316 -203 227 -115 448 -187 730 -238 110
-20 159 -22 415 -23 296 0 322 2 540 47 337 68 669 215 940 417 109 81 338
298 329 313 -3 5 0 7 8 6 7 -2 12 3 10 10 -1 8 2 11 7 8 5 -4 27 19 48 50 21
32 54 75 74 96 l37 38 83 -6 c152 -11 342 21 507 86 95 38 247 123 247 138 0
6 7 17 15 24 12 11 12 11 1 -5 -42 -55 89 45 184 140 86 86 188 222 181 240
-3 8 -2 12 3 8 22 -13 114 190 154 338 19 72 22 107 21 287 0 228 -13 305 -79
462 -168 397 -538 694 -970 779 -92 18 -336 18 -449 0 l-88 -15 -102 107 c-57
59 -108 107 -115 107 -7 0 -9 -5 -5 -12 4 -7 3 -8 -5 -4 -6 4 -9 11 -6 16 3 4
-24 31 -59 59 -65 52 -89 64 -65 34 13 -16 12 -17 -3 -4 -10 7 -16 17 -13 21
4 7 -67 60 -80 60 -18 0 8 -30 55 -64 30 -22 81 -61 113 -87 38 -32 63 -46 74
-42 9 4 14 2 10 -3 -3 -5 36 -54 87 -107 73 -78 96 -97 111 -91 13 5 16 4 11
-4 -5 -8 2 -12 19 -12 17 0 24 4 19 11 -4 8 1 9 16 4 16 -5 20 -4 15 5 -5 8 3
9 30 4 29 -5 36 -4 30 5 -5 10 7 11 51 7 40 -4 53 -3 39 3 -14 7 12 10 85 10
72 0 99 -3 85 -10 -14 -6 -3 -7 33 -3 37 4 52 2 52 -6 0 -9 11 -10 36 -5 25 4
34 3 29 -5 -5 -7 2 -9 21 -4 21 5 25 4 19 -6 -6 -10 -1 -12 18 -8 16 3 24 1
20 -5 -3 -5 3 -6 16 -2 13 4 21 2 21 -5 0 -7 8 -9 21 -5 16 5 19 4 14 -5 -5
-9 -1 -10 15 -5 14 4 20 3 16 -3 -8 -13 19 -23 41 -15 10 4 14 2 10 -4 -8 -12
47 -38 75 -36 10 1 16 -2 13 -8 -6 -9 8 -13 34 -10 7 2 10 -2 7 -8 -4 -6 8
-18 26 -27 18 -9 59 -34 91 -56 31 -21 57 -37 57 -34 0 2 49 -44 108 -102 118
-117 185 -204 248 -324 22 -43 44 -75 49 -71 4 5 5 0 2 -10 -5 -12 -3 -16 4
-11 8 4 9 -1 4 -16 -5 -15 -4 -20 4 -16 7 4 10 0 9 -11 -3 -36 2 -54 13 -47 8
4 9 -1 4 -16 -5 -16 -4 -20 5 -15 9 5 10 2 5 -14 -4 -13 -2 -21 5 -21 6 0 8
-11 4 -27 -4 -22 -3 -25 6 -13 8 12 9 6 4 -23 -4 -25 -3 -37 5 -37 9 0 10 -14
6 -48 -4 -26 -3 -42 2 -35 4 6 8 -51 8 -127 0 -76 -4 -136 -8 -133 -5 3 -5
-12 -1 -32 5 -30 4 -36 -6 -30 -10 6 -11 0 -6 -30 5 -27 4 -35 -4 -30 -9 5
-10 1 -5 -14 4 -13 2 -21 -5 -21 -7 0 -9 -8 -5 -21 5 -16 4 -19 -5 -14 -9 5
-10 1 -5 -15 5 -17 4 -21 -6 -15 -9 6 -11 2 -7 -13 4 -14 2 -20 -4 -16 -6 4
-8 -2 -3 -16 4 -14 3 -20 -3 -16 -13 8 -23 -19 -15 -41 4 -11 3 -14 -5 -9 -7
4 -12 3 -12 -1 0 -5 -20 -44 -45 -87 -24 -43 -42 -84 -38 -90 3 -6 3 -8 -2 -4
-4 4 -30 -22 -58 -59 -89 -117 -268 -281 -365 -332 -12 -7 -20 -17 -16 -22 3
-6 0 -9 -8 -7 -21 5 -118 -44 -111 -55 4 -6 0 -8 -11 -4 -11 5 -15 3 -10 -5 5
-8 2 -9 -9 -5 -20 8 -49 -2 -42 -13 3 -5 -5 -6 -17 -2 -14 3 -19 2 -14 -6 5
-8 0 -11 -11 -10 -36 3 -54 -2 -47 -13 4 -8 -1 -9 -16 -4 -16 5 -20 4 -15 -4
5 -8 -1 -10 -19 -5 -17 4 -26 2 -26 -5 0 -7 -10 -9 -26 -5 -18 5 -25 3 -20 -4
4 -7 -5 -9 -29 -5 -19 3 -35 2 -35 -3 0 -5 -70 -8 -155 -8 -103 1 -152 -2
-148 -9 3 -6 1 -7 -6 -3 -16 11 -36 -8 -84 -79 -114 -169 -372 -401 -603 -543
-51 -31 -90 -60 -87 -65 3 -5 -1 -7 -9 -5 -19 4 -119 -43 -112 -53 2 -4 -4 -7
-14 -6 -28 2 -83 -24 -75 -36 4 -6 0 -8 -10 -4 -22 8 -49 -2 -40 -16 4 -6 0
-8 -10 -4 -22 8 -49 -2 -41 -15 4 -6 -2 -7 -16 -3 -14 5 -20 3 -16 -3 4 -6 -2
-8 -16 -4 -15 4 -19 2 -13 -7 6 -10 2 -11 -15 -6 -14 5 -20 3 -16 -3 4 -6 -2
-8 -16 -4 -15 4 -19 2 -13 -7 6 -10 2 -11 -15 -6 -16 5 -20 4 -15 -4 5 -8 -1
-10 -21 -5 -20 5 -25 4 -19 -6 5 -9 2 -10 -15 -5 -16 5 -20 4 -15 -4 5 -8 -1
-10 -19 -5 -17 4 -26 2 -26 -6 0 -7 -8 -9 -21 -5 -14 5 -19 3 -15 -4 5 -7 -3
-9 -25 -4 -24 5 -30 3 -24 -7 6 -9 0 -10 -25 -5 -22 5 -30 4 -26 -4 5 -7 -3
-9 -24 -5 -20 5 -30 3 -30 -6 0 -9 -11 -10 -37 -6 -28 5 -34 4 -23 -4 11 -8 1
-9 -37 -4 -38 5 -53 3 -53 -5 0 -9 -16 -11 -57 -7 -32 4 -50 3 -41 -1 10 -5
-72 -8 -181 -8 -110 0 -194 4 -188 8 7 4 -14 5 -45 1 -43 -5 -58 -3 -58 6 0 9
-13 10 -47 6 -37 -5 -44 -4 -33 4 12 9 6 10 -22 5 -26 -4 -38 -2 -38 6 0 8
-12 9 -37 5 -29 -5 -34 -4 -23 4 12 9 7 10 -17 5 -23 -5 -33 -3 -33 5 0 8 -9
10 -26 6 -17 -5 -23 -3 -19 4 5 7 -2 9 -21 4 -21 -5 -25 -4 -19 6 6 10 2 11
-19 6 -20 -5 -26 -3 -21 5 5 8 1 9 -14 4 -13 -4 -21 -2 -21 5 0 7 -8 10 -20 7
-12 -3 -18 -1 -14 5 4 6 -2 8 -16 3 -15 -5 -20 -4 -16 4 7 11 -11 16 -47 13
-10 -1 -15 3 -12 8 6 10 -13 15 -48 12 -10 -1 -15 3 -12 8 6 10 -15 14 -44 11
-7 -2 -10 2 -6 8 6 10 -14 16 -44 12 -7 -2 -10 2 -6 9 5 9 1 10 -15 5 -15 -5
-20 -4 -16 4 5 7 1 8 -10 4 -12 -4 -15 -3 -10 5 7 12 -5 16 -33 13 -7 -2 -11
2 -7 7 6 11 -131 78 -151 74 -8 -2 -12 1 -9 6 7 12 -62 56 -86 54 -10 0 -17 5
-15 11 1 7 -6 11 -16 9 -10 -2 -16 3 -15 10 2 8 -4 12 -15 10 -10 -2 -16 3
-15 10 2 8 -4 12 -16 10 -10 -2 -15 1 -12 7 4 5 -19 29 -51 52 -32 24 -81 63
-108 88 -28 26 -62 57 -77 69 l-26 24 -66 -45 c-36 -24 -63 -47 -58 -52 4 -4
0 -6 -9 -2 -19 6 -73 -26 -62 -37 5 -4 1 -7 -7 -6 -27 4 -41 0 -35 -9 3 -6 -3
-9 -14 -8 -24 1 -102 -33 -96 -43 3 -5 -5 -6 -17 -2 -15 4 -19 2 -14 -7 5 -8
3 -12 -5 -10 -32 4 -50 -1 -43 -13 5 -8 2 -9 -10 -5 -11 4 -15 3 -10 -4 4 -8
-1 -9 -15 -4 -12 4 -21 2 -21 -4 0 -6 -8 -10 -17 -9 -36 3 -54 -2 -47 -13 4
-8 -1 -9 -16 -4 -16 5 -20 4 -15 -4 5 -8 -1 -10 -21 -5 -21 5 -25 4 -19 -6 6
-10 2 -11 -19 -6 -19 5 -26 3 -21 -4 5 -7 -2 -9 -21 -4 -20 5 -25 4 -19 -6 6
-9 0 -10 -25 -5 -24 5 -31 4 -25 -5 5 -8 -3 -9 -30 -4 -29 5 -36 4 -30 -6 6
-9 -3 -11 -36 -6 -32 5 -40 4 -29 -3 11 -8 -1 -9 -44 -5 -38 5 -57 4 -53 -3 4
-6 -52 -10 -158 -10 -100 0 -165 4 -165 10 0 6 -24 8 -60 4 -38 -3 -58 -1 -54
5 4 6 -8 7 -31 2 -30 -5 -36 -4 -30 6 6 10 0 12 -29 7 -25 -4 -34 -2 -30 5 5
7 -2 9 -20 4 -16 -4 -26 -2 -26 5 0 7 -12 8 -32 4 -26 -5 -30 -4 -18 5 12 9 9
10 -13 5 -21 -4 -27 -3 -21 6 5 9 -1 10 -20 5 -20 -5 -26 -3 -21 5 5 8 1 9
-15 4 -17 -5 -20 -4 -15 5 6 10 1 11 -19 6 -20 -5 -26 -4 -20 5 4 7 2 10 -7 7
-8 -3 -20 2 -27 9 -8 8 -23 11 -34 7 -15 -4 -18 -3 -13 7 6 9 2 11 -13 7 -12
-4 -20 -2 -17 3 6 9 -42 25 -64 20 -7 -1 -10 2 -7 7 8 13 -20 23 -41 15 -11
-4 -14 -3 -9 5 12 20 -10 13 -30 -9 -32 -35 -164 -143 -239 -194 -38 -26 -69
-52 -67 -57 1 -5 -4 -8 -11 -6 -20 4 -157 -64 -151 -74 4 -5 0 -9 -7 -7 -32 4
-50 -1 -43 -13 5 -8 2 -9 -9 -5 -22 8 -49 -2 -41 -15 4 -6 -2 -7 -16 -3 -14 5
-20 3 -16 -3 4 -6 -2 -8 -16 -4 -15 4 -19 2 -13 -7 6 -10 2 -11 -15 -6 -16 5
-20 4 -15 -4 5 -8 -1 -10 -21 -5 -20 5 -25 4 -19 -6 5 -9 2 -10 -15 -5 -15 5
-20 4 -16 -4 5 -7 -3 -9 -25 -4 -24 5 -30 3 -24 -7 6 -9 0 -10 -25 -5 -23 5
-30 4 -26 -4 5 -8 -4 -10 -33 -5 -27 4 -41 3 -41 -5 0 -7 -24 -9 -77 -6 -53 3
-68 2 -48 -4 23 -7 13 -9 -45 -9 -55 0 -68 2 -50 9 16 6 -2 7 -53 3 -60 -4
-77 -2 -71 7 5 9 -5 11 -42 6 -36 -5 -45 -4 -34 4 11 8 7 9 -17 4 -22 -4 -33
-3 -33 5 0 8 -11 9 -32 5 -26 -5 -30 -4 -18 5 12 9 9 10 -13 5 -21 -4 -27 -3
-21 6 5 9 -1 10 -20 5 -20 -5 -26 -3 -21 5 5 8 1 9 -15 4 -17 -5 -21 -4 -15 6
6 9 2 11 -13 7 -14 -4 -20 -2 -16 4 4 6 -2 8 -16 3 -17 -5 -21 -4 -15 6 6 9 2
11 -13 7 -12 -4 -20 -2 -17 3 6 9 -42 25 -64 20 -7 -1 -10 2 -6 8 6 10 -14 16
-44 12 -7 -2 -10 2 -6 8 6 11 -7 15 -34 12 -7 -2 -10 2 -6 8 6 11 -7 15 -34
12 -7 -2 -10 2 -6 8 6 11 -7 15 -33 12 -7 -1 -11 4 -10 11 2 7 -5 12 -14 12
-10 -1 -16 3 -15 10 1 6 -6 10 -16 10 -10 -1 -16 0 -13 3 3 3 -20 24 -52 45
-68 48 -164 129 -209 176 -19 20 -37 31 -44 26 -8 -4 -9 -3 -5 5 4 7 -11 32
-38 62 -25 28 -69 86 -97 128 -28 42 -56 75 -61 73 -5 -1 -8 3 -7 10 3 26 -1
39 -12 33 -6 -4 -10 -1 -8 6 3 27 -1 40 -12 34 -6 -4 -10 -1 -8 6 3 28 -1 40
-13 33 -8 -5 -9 -2 -5 9 4 10 2 28 -4 41 -10 21 -15 23 -40 14 -17 -6 -26 -15
-22 -21 4 -6 0 -8 -10 -4 -21 8 -49 -2 -41 -15 3 -5 0 -9 -7 -7 -32 4 -50 -1
-43 -13 5 -8 2 -9 -10 -5 -11 4 -15 3 -10 -4 4 -8 -1 -9 -16 -4 -16 5 -20 4
-15 -5 5 -9 1 -10 -15 -5 -16 5 -20 4 -15 -5 5 -9 1 -10 -15 -5 -16 5 -20 4
-15 -5 5 -9 1 -10 -15 -5 -14 5 -20 3 -16 -3 4 -6 -2 -8 -16 -4 -16 4 -19 2
-13 -8 6 -10 2 -11 -19 -6 -16 4 -25 3 -22 -2 3 -5 -6 -7 -21 -4 -19 4 -24 2
-18 -8 5 -9 2 -10 -15 -5 -16 5 -20 4 -15 -4 5 -8 -1 -10 -21 -5 -21 5 -25 4
-19 -6 6 -10 2 -11 -19 -6 -20 5 -26 3 -21 -5 5 -8 -1 -9 -24 -4 -21 4 -31 3
-31 -5 0 -8 -9 -10 -26 -6 -17 5 -24 3 -19 -4 5 -8 -4 -9 -30 -4 -30 5 -36 4
-30 -6 6 -10 -1 -12 -34 -6 -28 4 -40 3 -36 -4 4 -6 -10 -8 -39 -4 -33 5 -46
3 -46 -5 0 -9 -18 -11 -67 -6 -38 3 -63 3 -56 -2 6 -4 -67 -8 -162 -8 -95 0
-168 4 -162 8 7 4 -18 5 -55 1 -51 -5 -68 -3 -68 6 0 9 -13 10 -47 6 -37 -5
-44 -4 -33 4 12 9 6 10 -22 5 -26 -4 -38 -2 -38 6 0 8 -12 10 -35 6 -22 -4
-33 -2 -29 4 3 6 -5 7 -22 3 -21 -5 -25 -4 -19 6 6 10 1 12 -24 7 -23 -5 -30
-3 -25 5 5 7 -1 9 -20 4 -16 -4 -26 -2 -26 5 0 7 -9 9 -26 5 -18 -5 -24 -3
-19 5 5 8 1 9 -15 4 -17 -5 -20 -4 -15 5 6 10 1 11 -19 6 -20 -5 -26 -3 -21 5
5 8 1 9 -15 4 -17 -5 -21 -4 -15 6 6 9 2 11 -13 7 -14 -4 -20 -2 -16 4 4 6 -2
8 -16 3 -17 -5 -21 -4 -15 6 6 9 2 11 -13 7 -14 -4 -20 -2 -16 4 4 6 -2 8 -16
3 -14 -4 -20 -3 -16 3 8 13 -19 23 -41 15 -10 -4 -14 -2 -10 4 9 14 -18 24
-40 16 -10 -4 -14 -2 -10 4 8 13 -59 44 -79 36 -12 -4 -15 -3 -10 5 7 12 -5
16 -33 13 -7 -2 -10 2 -6 8 6 11 -7 15 -34 12 -7 -2 -10 2 -7 8 8 12 -44 40
-62 34 -7 -3 -11 -1 -10 4 2 6 -42 40 -96 77 -126 85 -251 191 -351 297 -43
46 -82 83 -87 81 -5 -1 -8 3 -7 10 4 20 -62 118 -74 111 -6 -4 -8 0 -5 9 7 18
-25 72 -36 61 -4 -5 -7 -1 -6 7 4 29 0 41 -12 34 -8 -5 -9 -2 -5 9 3 9 0 23
-8 31 -8 7 -12 16 -9 18 8 8 -18 68 -27 62 -5 -3 -6 2 -3 10 3 9 1 16 -5 16
-6 0 -10 8 -9 18 3 35 -2 53 -13 46 -8 -4 -9 1 -4 16 5 16 4 20 -4 15 -8 -5
-10 1 -5 19 4 17 2 26 -5 26 -7 0 -9 10 -5 26 5 18 3 25 -4 20 -7 -4 -9 5 -5
30 5 28 3 35 -7 29 -9 -6 -11 2 -6 36 4 24 3 39 -1 32 -5 -7 -8 48 -8 122 0
73 4 131 9 128 4 -3 5 13 1 36 -5 29 -3 41 5 41 9 0 11 10 6 30 -4 22 -2 29 6
24 7 -5 9 1 4 20 -4 16 -2 26 4 26 7 0 9 8 5 21 -5 16 -4 19 5 14 9 -5 10 -1
5 15 -5 15 -4 20 4 16 11 -7 16 11 13 47 -1 11 2 15 9 11 8 -4 9 1 4 16 -5 15
-4 20 4 16 7 -5 8 -1 4 10 -4 11 -2 15 4 11 14 -9 24 18 16 40 -4 11 -3 14 5
9 13 -8 62 82 55 102 -3 7 0 11 5 10 5 -2 36 34 69 80 33 45 88 115 124 154
35 40 63 76 61 80 -1 4 4 7 10 6 7 -2 11 4 10 12 -2 8 0 12 3 8 4 -4 37 19 74
51 36 32 102 85 146 116 44 32 79 61 78 66 -2 4 5 7 15 7 24 -2 93 42 86 54
-3 5 0 9 7 7 27 -3 40 1 34 12 -4 6 -1 10 6 8 27 -3 40 1 34 12 -4 6 -1 10 6
8 27 -3 40 1 34 12 -4 6 -1 10 6 8 28 -3 40 1 33 13 -5 8 -2 9 9 5 22 -8 49 2
40 16 -4 6 0 8 10 4 22 -8 49 2 40 16 -4 6 0 8 10 4 22 -8 49 2 41 15 -4 6 2
7 16 3 14 -5 20 -3 16 3 -4 6 2 8 16 4 15 -4 19 -2 13 7 -6 10 -2 11 15 6 16
-5 20 -4 15 4 -5 8 1 10 21 5 19 -5 25 -4 20 5 -4 7 0 10 11 9 37 -3 54 2 47
13 -5 9 1 10 20 5 19 -5 26 -3 21 4 -5 7 2 9 21 4 21 -5 25 -4 19 6 -6 10 -2
11 19 6 18 -4 25 -3 21 3 -4 7 5 8 26 4 24 -5 30 -3 24 7 -6 9 0 10 25 5 24
-5 31 -4 25 5 -5 8 3 9 30 4 29 -5 36 -4 30 6 -6 9 3 11 36 6 33 -6 40 -4 29
4 -11 8 -1 9 43 4 40 -4 57 -3 57 5 0 8 24 10 83 6 54 -3 73 -2 57 4 -17 6 22
9 115 9 90 0 131 -3 115 -9 -15 -5 5 -6 54 -2 63 4 77 3 71 -7 -6 -10 4 -12
51 -6 43 4 55 3 44 -5 -11 -7 -3 -8 29 -3 31 4 42 3 37 -5 -5 -7 1 -11 15 -11
21 0 21 3 15 58 -4 42 -3 53 5 42 8 -11 9 -7 4 19 -5 23 -4 31 4 27 11 -7 16
17 12 62 -1 16 2 21 10 16 9 -5 10 0 5 20 -4 18 -3 25 3 21 7 -4 8 1 4 11 -4
12 -3 15 5 10 12 -7 17 10 14 47 -1 10 2 16 6 13 5 -3 24 27 43 65 18 39 39
75 46 81 17 14 16 25 -2 25 -8 0 -21 -10 -29 -21z m8245 -613 c13 -16 12 -17
-3 -4 -10 7 -18 15 -18 17 0 8 8 3 21 -13z m44 -33 c10 -11 16 -20 13 -20 -3
0 -13 9 -23 20 -10 11 -16 20 -13 20 3 0 13 -9 23 -20z m155 -135 c13 -14 21
-25 18 -25 -2 0 -15 11 -28 25 -13 14 -21 25 -18 25 2 0 15 -11 28 -25z m60
-70 c19 -19 32 -35 29 -35 -3 0 -20 16 -39 35 -19 19 -32 35 -29 35 3 0 20
-16 39 -35z m-10450 -9 c0 -3 -15 -14 -32 -26 l-33 -22 30 26 c31 27 35 29 35
22z m-70 -49 c0 -2 -10 -12 -22 -23 l-23 -19 19 23 c18 21 26 27 26 19z m-60
-50 c0 -2 -17 -19 -37 -38 l-38 -34 34 38 c33 34 41 42 41 34z m11575 -77 c3
-6 -1 -7 -9 -4 -18 7 -21 14 -7 14 6 0 13 -4 16 -10z m-11715 -63 c0 -2 -17
-19 -37 -38 l-38 -34 34 38 c33 34 41 42 41 34z m11905 -67 c10 -11 16 -20 13
-20 -3 0 -13 9 -23 20 -10 11 -16 20 -13 20 3 0 13 -9 23 -20z m-11985 -24 c0
-2 -8 -10 -17 -17 -16 -13 -17 -12 -4 4 13 16 21 21 21 13z m12090 -71 c35
-36 62 -65 59 -65 -2 0 -34 29 -69 65 -35 36 -62 65 -59 65 2 0 34 -29 69 -65z
m-12150 -5 c-12 -16 -24 -30 -26 -30 -3 0 4 14 16 30 12 17 24 30 26 30 3 0
-4 -13 -16 -30z m12241 -97 c13 -16 12 -17 -3 -4 -10 7 -18 15 -18 17 0 8 8 3
21 -13z m139 -214 c12 -23 20 -43 18 -45 -3 -2 -14 17 -26 41 -27 56 -20 60 8
4z m-12460 -1099 c6 -11 8 -20 6 -20 -3 0 -10 9 -16 20 -6 11 -8 20 -6 20 3 0
10 -9 16 -20z m12430 -30 c-6 -11 -13 -20 -16 -20 -2 0 0 9 6 20 6 11 13 20
16 20 2 0 0 -9 -6 -20z m-12349 -97 c13 -16 12 -17 -3 -4 -10 7 -18 15 -18 17
0 8 8 3 21 -13z m12269 -27 c0 -2 -8 -10 -17 -17 -16 -13 -17 -12 -4 4 13 16
21 21 21 13z m-30 -40 c0 -2 -8 -10 -17 -17 -16 -13 -17 -12 -4 4 13 16 21 21
21 13z m-12154 -38 l29 -33 -32 29 c-31 28 -38 36 -30 36 2 0 16 -15 33 -32z
m12114 -11 c0 -1 -28 -29 -62 -62 l-63 -60 60 63 c55 58 65 67 65 59z m-12005
-97 c33 -33 57 -60 54 -60 -2 0 -31 27 -64 60 -33 33 -57 60 -54 60 2 0 31
-27 64 -60z m11865 -33 c0 -2 -10 -12 -22 -23 l-23 -19 19 23 c18 21 26 27 26
19z m-11775 -47 c10 -11 16 -20 13 -20 -3 0 -13 9 -23 20 -10 11 -16 20 -13
20 3 0 13 -9 23 -20z m11725 6 c0 -2 -8 -10 -17 -17 -16 -13 -17 -12 -4 4 13
16 21 21 21 13z m-11669 -53 c13 -16 12 -17 -3 -4 -10 7 -18 15 -18 17 0 8 8
3 21 -13z m10947 -220 c-15 -2 -42 -2 -60 0 -18 2 -6 4 27 4 33 0 48 -2 33 -4z
m-238 -47 c0 -2 -8 -10 -17 -17 -16 -13 -17 -12 -4 4 13 16 21 21 21 13z
m-170 -209 c0 -1 -28 -29 -62 -62 l-63 -60 60 63 c55 58 65 67 65 59z m-7819
-54 c13 -16 12 -17 -3 -4 -10 7 -18 15 -18 17 0 8 8 3 21 -13z m4400 -40 l24
-28 -27 24 c-16 13 -32 20 -39 16 -8 -5 -10 -4 -5 3 11 18 20 15 47 -15z
m-4370 0 c13 -16 12 -17 -3 -4 -10 7 -18 15 -18 17 0 8 8 3 21 -13z m45 -55
l29 -33 -32 29 c-31 28 -38 36 -30 36 2 0 16 -15 33 -32z m7594 9 c0 -2 -12
-14 -27 -28 l-28 -24 24 28 c23 25 31 32 31 24z m-3185 -27 c10 -11 16 -20 13
-20 -3 0 -13 9 -23 20 -10 11 -16 20 -13 20 3 0 13 -9 23 -20z m60 -50 c10
-11 16 -20 13 -20 -3 0 -13 9 -23 20 -10 11 -16 20 -13 20 3 0 13 -9 23 -20z
m3055 16 c0 -2 -8 -10 -17 -17 -16 -13 -17 -12 -4 4 13 16 21 21 21 13z
m-7440 -41 c19 -19 32 -35 29 -35 -3 0 -20 16 -39 35 -19 19 -32 35 -29 35 3
0 20 -16 39 -35z m3930 5 c-8 -5 -19 -10 -25 -10 -5 0 -3 5 5 10 8 5 20 10 25
10 6 0 3 -5 -5 -10z m3470 6 c0 -2 -8 -10 -17 -17 -16 -13 -17 -12 -4 4 13 16
21 21 21 13z m-5210 -19 c0 -2 -17 -19 -37 -38 l-38 -34 34 38 c33 34 41 42
41 34z m-2110 -62 c13 -14 21 -25 18 -25 -2 0 -15 11 -28 25 -13 14 -21 25
-18 25 2 0 15 -11 28 -25z m2020 -18 c0 -2 -10 -12 -22 -23 l-23 -19 19 23
c18 21 26 27 26 19z m-1959 -34 c13 -16 12 -17 -3 -4 -10 7 -18 15 -18 17 0 8
8 3 21 -13z m1909 -7 c0 -2 -8 -10 -17 -17 -16 -13 -17 -12 -4 4 13 16 21 21
21 13z m5150 -1 c0 -2 -10 -9 -22 -15 -22 -11 -22 -10 -4 4 21 17 26 19 26 11z
m-7019 -22 c13 -16 12 -17 -3 -4 -17 13 -22 21 -14 21 2 0 10 -8 17 -17z
m6969 -8 c0 -2 -10 -9 -22 -15 -22 -11 -22 -10 -4 4 21 17 26 19 26 11z
m-5170 -19 c0 -2 -8 -10 -17 -17 -16 -13 -17 -12 -4 4 13 16 21 21 21 13z
m2829 -62 c14 -12 -19 -1 -35 12 -18 14 -18 14 6 3 14 -6 27 -13 29 -15z
m2116 -34 c-3 -5 -12 -10 -18 -10 -7 0 -6 4 3 10 19 12 23 12 15 0z m-5139
-25 c-11 -8 -25 -15 -30 -15 -6 1 0 7 14 15 32 19 40 18 16 0z"/>
</g>
</svg>
